<svg id="图层_1" data-name="图层 1" xmlns="http://www.w3.org/2000/svg" viewBox="0 0 755.01 373.37"><defs><style>.cls-1{fill:#eddb8a;opacity:0.8;}.cls-1,.cls-10,.cls-2,.cls-5,.cls-6,.cls-8,.cls-9{fill-rule:evenodd;}.cls-2,.cls-3{fill:#fff;}.cls-4,.cls-5,.cls-7,.cls-8{fill:none;}.cls-4,.cls-7,.cls-8{stroke:#fff;stroke-width:3px;}.cls-4,.cls-5,.cls-8{stroke-miterlimit:10;}.cls-5{stroke:#d3546a;stroke-width:19px;}.cls-5,.cls-7{stroke-linecap:round;}.cls-6{fill:#d3546a;}.cls-7{stroke-linejoin:round;}.cls-9{fill:#f5f5f4;}.cls-10{fill:#383954;}</style></defs><title>吔包C</title><path class="cls-1" d="M797.18,1041.85a185.82,185.82,0,0,0-93.63,34.6,164.35,164.35,0,1,1,13.68,311.8,185.79,185.79,0,0,0,111.13,25.63c102.74-8.61,179-98.86,170.43-201.6S899.92,1033.24,797.18,1041.85Z" transform="translate(-468.49 -1041.19)"/><polygon class="cls-2" points="518.03 162.93 501.34 165.94 502.86 174.44 546.82 166.48 548.68 176.88 481.68 188.93 483.45 198.82 611.9 175.8 613.22 183.17 702.45 167.17 701.71 163 691.02 164.92 690.01 159.32 700.7 157.4 699.76 152.16 706.65 150.92 707.59 156.17 753.27 147.98 738.25 64.21 706.45 69.91 709.76 88.45 692.71 91.5 691.75 86.08 650.61 93.45 649.61 87.92 690.75 80.55 689.39 72.96 633.7 82.95 635.38 92.39 625.48 94.17 623.78 84.72 566 95.08 567.91 105.77 582.08 103.23 583.58 108.63 534.38 118.13 537.63 136.01 521.67 138.91 518.44 121.21 511.12 122.62 515.61 148.81 533 145.65 534.28 152.73 516.83 155.91 518.03 162.93"/><rect class="cls-3" x="1177.09" y="1198.85" width="46.4" height="4.24" transform="translate(-661.52 -810.62) rotate(-10.16)"/><line class="cls-4" x1="620.98" y1="180.59" x2="15.88" y2="289.06"/><path class="cls-2" d="M484.51,1330.35c8.43-24.42-16.94-19.52,0,0-16.94-19.52-25.38,4.91,0,0-25.38,4.91-8.44,24.43,0,0-8.44,24.43,16.93,19.52,0,0,16.93,19.52,25.37-4.91,0,0C509.88,1325.44,492.9,1305.93,484.51,1330.35Z" transform="translate(-468.49 -1041.19)"/><path class="cls-2" d="M552,1237.29l15.21-7.28c-2.45-13.5-4.49-24-5.75-30.92a3,3,0,0,1,2.43-3.5h0a3,3,0,0,1,3.48,2.3h0l0,.12.7,3.83,4.58,25.17,11.9-6.16a82.8,82.8,0,0,0,10.93-6,61.15,61.15,0,0,0,1.8,12.71l6,33q3.72,9.36-12.6,13.32a14.71,14.71,0,0,0-5-5.6q14.14-2.07,11.06-8l-6.62-36.37-16.49,8.52,2.22,12.15,0,0,.41,2.26a3,3,0,0,1-2.36,3.42h0a3,3,0,0,1-3.19-1.64l-.09.07-.14-.8-.71-3.86-1.56-8.62L553,1242.63l9.44,51.86c.65,3.57-.35,5.54,4.83,4.63l36.41-6.37c2.9-.5,6.77-.69,5.87-1.75l-5.24-6.14h0c-.11-.13-3.67-3.78-.74-4.86,1.41-.17,2.2-.52,3.38.47,8.13,9.61,12.41,16.49,7.77,16l-50.26,9.15c-5.22.95-6.42-2.36-7.48-8.17l-9.44-51.88a119,119,0,0,1-11.81,6.66l-3.38-4.88a16.38,16.38,0,0,0,3.69-1.67c3.05-1.56,6.56-3.38,10.53-5.43l-4-21.77-.63-3.44h0c0-.06,0-.14-.06-.23h0l-.45-2.47a3,3,0,0,1,2.38-3.43h0a3,3,0,0,1,3.44,2.38l.44,2.46.68,3.7Z" transform="translate(-468.49 -1041.19)"/><path class="cls-2" d="M626.91,1227.16a102.21,102.21,0,0,0,24.45-50,55.58,55.58,0,0,0,7.9,2.07c.75.52,1.17,1,1.23,1.27a1.55,1.55,0,0,1-1.27,1.23,6,6,0,0,0-2.78,4,7.51,7.51,0,0,1-1.11,2.21c-.81,2.82-1.4,5.11-1.75,6.84l52.36-9.53c1.2-.22,2.54-.5,4-.85l.08,0,.21,0,.09,0h0c.66-.15,1.35-.32,2.06-.51,2.8-.5,7.51-.61,8.25,4.07l.05.38h0v0c0,.15,0,.29,0,.42q.54,3.93,1.22,7.65l8.09,44.46c1.54,8.43-3.71,9.53-20,11.91l-5.45,1a3.17,3.17,0,0,1-3.69-2.55h0a3.2,3.2,0,0,1,2.55-3.7,36.5,36.5,0,0,1,4.8-.87c3.45-.63,15.5-1.67,15-4.54l-8.21-45.1c-1.6-8.77-6.53-6.47-9-6.22l-1.22.22-54.22,9.88a164,164,0,0,1-16.18,29.48,22.44,22.44,0,0,0-7.58-3.13Zm18.38-10.8c3.67,20.16,6.9,39.52,10.56,59.63,1.18,6.48,5.24,9.56,13,8.14,25-4.55,49.82-9,74.88-13.51,4.64.45.36-6.43-7.76-16-1.19-1-2-.64-3.38-.47-2.93,1.08.62,4.73.73,4.86h0l5.24,6.14c.91,1.06-3,1.25-5.86,1.75-21,3.68-41,7.61-61.92,11.43-5.43,1.31-8.17-.86-9.17-6.35l-4.24-23.26,41.26-7.51a3.71,3.71,0,0,0,3-4.29l-4.76-26.15a3.69,3.69,0,0,0-4.29-3Z" transform="translate(-468.49 -1041.19)"/><path class="cls-2" d="M911.25,1163.88l-8.72,1.59q-5.49-13.53-24.07-11.16Q850,1160.52,856,1199q7.94,38.12,36.64,33.4,18.32-3.84,19.39-20.07l8.73-1.59q-1.87,22.88-26.88,28.45-37.53,5.83-46.61-38.6-6.84-45.84,29.75-54Q904.47,1143.07,911.25,1163.88Z" transform="translate(-468.49 -1041.19)"/><path class="cls-2" d="M575,1253.14h0a3.07,3.07,0,0,1,3.55,2.46l3.85,21.13a3.07,3.07,0,0,1-2.46,3.56h0a3.07,3.07,0,0,1-3.55-2.46l-3.85-21.13A3.07,3.07,0,0,1,575,1253.14Z" transform="translate(-468.49 -1041.19)"/><polyline class="cls-5" points="411.08 143.32 413.51 156.84 427.03 154.42"/><path class="cls-6" d="M652.33,1220.11l35.07-6.38a3.69,3.69,0,0,1,4.29,3l3,16.4a3.71,3.71,0,0,1-3,4.29l-35.08,6.38Z" transform="translate(-468.49 -1041.19)"/><path class="cls-2" d="M719.63,1186.2l-5.14,3.49c-.21-.73-1.89-5.19-1.46-5.51,1.67-1.29,13.24-8.24,13.3-11.47,0-2.8.11-5.59.15-8.39,0-.58.37-2.59-.13-3.14-.85-.88-3.52-.22-4.73-.58-6.89-2.09-4.86-11.47,1.07-13.33a5.89,5.89,0,0,1,7,2.42c2.65,4.58-1.74,9.24-1.19,14a13.53,13.53,0,0,0,3.25,7c1.06,1.23,6-4.19,6.53-4.94,3.18-4.18,3-11.11,8-13.8,7.74-4.11,11.47,6.73,5.54,11.25a7.38,7.38,0,0,1-4.3,1.58c-1.62,0-3.57-1.88-4.85-1.66-1.8.31-2.53,3.87-3.26,5.13a18.16,18.16,0,0,1-2.37,3.08c-.63.69-3.52,2.74-3.54,3.51-.3,11.52,1.74,25.19-6,34.75q-.65-14.38-1.29-28.77l-6.54,5.37Zm27.91-23.53h0c5.8.37,8.13-10.08,1.33-9.58-4.78.33-7.53,9.1-1.33,9.58Zm-19-9.08h0c.5-6.76-9-5.31-9.42.63C718.69,1161,728.06,1159.78,728.57,1153.59Z" transform="translate(-468.49 -1041.19)"/><line class="cls-7" x1="291.35" y1="162.46" x2="309.43" y2="159.22"/><line class="cls-7" x1="297.51" y1="146.57" x2="304.99" y2="188.33"/><polygon class="cls-6" points="328.43 139.63 331.91 159.05 359.96 154.02 328.43 139.63"/><path class="cls-8" d="M797.79,1224.56a14.57,14.57,0,1,1-13.31,15.74,14.57,14.57,0,0,1,13.31-15.74" transform="translate(-468.49 -1041.19)"/><path class="cls-8" d="M798.26,1230.25a8.86,8.86,0,1,1-8.09,9.57,8.87,8.87,0,0,1,8.09-9.57" transform="translate(-468.49 -1041.19)"/><line class="cls-7" x1="333.65" y1="165.17" x2="339.31" y2="196.77"/><line class="cls-7" x1="339.48" y1="186.45" x2="360.41" y2="199.62"/><polygon class="cls-6" points="36.52 226.55 40 245.97 63.58 241.76 36.52 226.55"/><path class="cls-2" d="M503.69,1282.66l-8.83-48.49c-.18-1-.7-2.89-1.56-5.72q-.71-3.89-1-5.34a38.85,38.85,0,0,0,11.26-1.56l8.71-1.58c5.56-.67,9.25-1.52,11.06-2.51a64.19,64.19,0,0,1,.67,6.4c.47,2.58.77,4.2.89,4.84l8.82,48.48c.18,1,.44,2.42.8,4.37.91,3.17,1.47,5.39,1.71,6.7a88.33,88.33,0,0,0-11.24,1.53l-8.71,1.59a87.6,87.6,0,0,0-11.08,2.53l-1.33-7.29a31,31,0,0,0-.2-3.95Zm25.21.92-10.77-59.16-17.93,3.26L511,1286.84Z" transform="translate(-468.49 -1041.19)"/><path class="cls-9" d="M916.59,1209l-5.13,3.5c.6.46,4.13,3.65,4.59,3.37,1.8-1.08,12.5-9.32,15.54-8.19l7.86,2.92c.54.21,2.56.62,2.86,1.28.52,1.11-1.08,3.34-1.18,4.61-.6,7.15,8.92,8.72,12.82,3.88a5.93,5.93,0,0,0,.29-7.4c-3.3-4.15-9.25-1.76-13.44-4a13.54,13.54,0,0,1-5.37-5.6c-.75-1.44,6.08-4,7-4.28,5-1.42,11.42,1.31,15.75-2.39,6.67-5.71-2.07-13.14-8.44-9.26a7.4,7.4,0,0,0-3.09,3.43c-.63,1.53.44,4-.23,5.13-.9,1.6-4.51.94-6,1.16a17.55,17.55,0,0,0-3.76,1.07c-.86.34-3.84,2.28-4.55,2-10.84-3.94-22.78-10.87-34.56-7.09l26.31,11.7-7.29,4.13Zm32.07-17.39h0c1.79-5.54,12.42-3.91,9.45,2.22-2.07,4.37-11.24,3.72-9.43-2.23Zm1.55,21h0c6.48,2,1.59,10.37-4,8.53C939.73,1219.07,944.26,1210.8,950.21,1212.55Z" transform="translate(-468.49 -1041.19)"/><path class="cls-10" d="M1044.3,1220.79l-4.47-24.56,3-7.26.11.13c1.22-3.38,2.76-7.2,4.58-11.47l8.18-19.27,9-1.64-17.21,37.91,4.51,24.75-7.75,1.41Zm-10.66-31.09-22.49-23.23,9.3-1.69,14.76,15.58,1.29,1.36-2.86,8Zm52.82,23.42-10.64-58.42,7.75-1.41,1.25,6.85,3.22,17.71,1.25,6.85,3.67,20.15,1.25,6.85-7.75,1.42Zm4.27-61.13,1.24,6.85,4.53-.82a33.52,33.52,0,0,1,9-.8,7.15,7.15,0,0,1,4.54,2.32,9.43,9.43,0,0,1,2.33,4.87,8.62,8.62,0,0,1-.56,5.38,8.35,8.35,0,0,1-3.92,3.74,29.38,29.38,0,0,1-7.24,2l-5.48,1,1.25,6.86,6.36-1.16a29.08,29.08,0,0,1,8.71-.58,9,9,0,0,1,5.27,2.56,9.8,9.8,0,0,1,2.73,5.39,10.37,10.37,0,0,1-.26,5.14,8.68,8.68,0,0,1-2.36,3.8,12.72,12.72,0,0,1-4.17,2.41,33.61,33.61,0,0,1-5.22,1.24l-7.4,1.35,1.25,6.85,7.38-1.34a39.58,39.58,0,0,0,9.26-2.7,18.5,18.5,0,0,0,5.87-4,15.18,15.18,0,0,0,3.29-6.22,17.34,17.34,0,0,0,.35-8,14.4,14.4,0,0,0-4.46-8.32,15.42,15.42,0,0,0-9.11-3.82,14.71,14.71,0,0,0,5.14-6.46,13.5,13.5,0,0,0,.75-7.41,14.55,14.55,0,0,0-3.71-7.29,14,14,0,0,0-7.31-4.32,27.7,27.7,0,0,0-11.07.19l-7,1.28Zm61.07,39.92-22-47,8-1.47,15.41,36-1.43,12.54Zm7.08-10.39c0-.54.07-.94.09-1.17l3.85-41.49,9.32-1.69,13.76,28a177.44,177.44,0,0,1,8.32,19.84q.15-5.74.66-13.23l2.29-39.22,7.77-1.41-5.36,61.32-7.52,1.37-20.35-42.27q-2.57-5.31-3.14-6.51c-.18,2.78-.36,5.18-.54,7.16l-4.14,46.75-5.91,1.08Z" transform="translate(-468.49 -1041.19)"/></svg>